# xmcd
# 
# Track frame offsets:
#     150
#     24513
#     49362
#     69912
#     91053
#     105269
#     122677
#     141031
#     157543
#     176389
#     199578
#     220829
# 
# Disc length: 3141
# 
# Revision: 2
# Processed by: cddbd v1.5.2PL0 Copyright (c) Steve Scherf et al.
# Submitted via: fre:ac v1.0.31
# 
DISCID=8e0c430c
DTITLE=Mitch Ryder - Detroit Ain't Dead Yet
DYEAR=2008
DGENRE=Rock/Pop
TTITLE0=Back Then
TTITLE1=The Promise
TTITLE2=One Hair
TTITLE3=Everybody Looses
TTITLE4=My Heart Belongs To Me
TTITLE5=Crazy Beautiful
TTITLE6=Lets Keep Dancing
TTITLE7=If My Baby Dont Stop Cryin
TTITLE8=Get Real
TTITLE9=What Becomes Of The Broken Hearted
TTITLE10=Junkie Love
TTITLE11=The Way We Were
EXTD=
EXTT0=
EXTT1=
EXTT2=
EXTT3=
EXTT4=
EXTT5=
EXTT6=
EXTT7=
EXTT8=
EXTT9=
EXTT10=
EXTT11=
PLAYORDER=
